# xmcd
#
# Track frame offsets: 
#        172
#        11657
#        31722
#        50102
#        61665
#        82380
#        101417
#        125590
#        148720
#        167070
#        180845
#        197107
#
# Disc length: 3136 seconds
#
# Revision: 0
# Processed by: cddbd v1.5.2PL0 Copyright (c) Steve Scherf et al.
# Submitted via: ExactAudioCopy v1.3
#
DISCID=9f0c3e0c
DTITLE=Debra Knodel and Jane Valencia - The Harpers' Masque - A Celebr
DTITLE=ation of Celtic Harps
DYEAR=1992
DGENRE=
TTITLE0=Loneome Road
TTITLE1=Winter Creek
TTITLE2=Lauda
TTITLE3=Return to Fingal
TTITLE4=Chanter's Tune
TTITLE5=Lochaber No More
TTITLE6=Waltz of the Little Girls
TTITLE7=Hebrides Dances
TTITLE8=Redlands
TTITLE9=Lisdoon
TTITLE10=Shetlands Reels
TTITLE11=The Fisherman's Song for Attracting Seals
EXTD=
EXTT0=
EXTT1=
EXTT2=
EXTT3=
EXTT4=
EXTT5=
EXTT6=
EXTT7=
EXTT8=
EXTT9=
EXTT10=
EXTT11=
PLAYORDER=
